# xmcd
#
# Track frame offsets:
#	150
#	12429
#	32265
#
# Disc length: 718 seconds
#
# Revision: 0
# Processed by: cddbd v1.5.1PL0 Copyright (c) Steve Scherf et al.
# Submitted via: MusicManager 7.2.0.0 
#
DISCID=1502cc03
DTITLE=Cubistic Jack -  "gotta Get" EP
DYEAR=1900
DGENRE=blues
TTITLE0=Gotta Get
TTITLE1=Sneakin'
TTITLE2=I Prayed
EXTD=
EXTT0=
EXTT1=
EXTT2=
PLAYORDER=
